<svg width="19" height="19" viewBox="0 0 19 19" fill="none" xmlns="http://www.w3.org/2000/svg">
<circle cx="9.025" cy="9.025" r="8.525" stroke="#D9D9D9"/>
<path d="M13.5245 6.7777L9.02434 11.3205L4.52422 6.7777C4.44382 6.69637 4.33589 6.65083 4.2235 6.65083C4.1111 6.65083 4.00317 6.69637 3.92277 6.7777C3.88384 6.8172 3.85291 6.86435 3.83179 6.91638C3.81068 6.96842 3.7998 7.02429 3.7998 7.08074C3.7998 7.13718 3.81068 7.19306 3.83179 7.24509C3.85291 7.29713 3.88384 7.34428 3.92277 7.38378L8.71011 12.2175C8.79418 12.3024 8.90694 12.3499 9.02434 12.3499C9.14175 12.3499 9.25451 12.3024 9.33858 12.2175L14.1259 7.38471C14.1651 7.34518 14.1963 7.29792 14.2176 7.24571C14.2388 7.1935 14.2498 7.13741 14.2498 7.08074C14.2498 7.02407 14.2388 6.96798 14.2176 6.91577C14.1963 6.86356 14.1651 6.81629 14.1259 6.77676C14.0455 6.69543 13.9376 6.6499 13.8252 6.6499C13.7128 6.6499 13.6049 6.69543 13.5245 6.77676V6.7777Z" fill="#D9D9D9"/>
</svg>
