<svg width="30" height="30" viewBox="0 0 30 30" fill="none" xmlns="http://www.w3.org/2000/svg">
<path d="M15.725 15L29.493 1.21604C29.5886 1.11943 29.6423 0.988978 29.6423 0.853038C29.6423 0.717099 29.5886 0.586651 29.493 0.490038C29.395 0.396589 29.2647 0.344541 29.1293 0.344727C28.9939 0.344913 28.8637 0.39732 28.766 0.491038L15 14.274L1.23199 0.490038C1.13393 0.397201 1.00403 0.345463 0.868991 0.345463C0.733955 0.345463 0.604051 0.397201 0.505991 0.490038C0.410421 0.586481 0.356803 0.716763 0.356803 0.852538C0.356803 0.988313 0.410421 1.1186 0.505991 1.21504L14.275 15L0.506991 28.784C0.456469 28.831 0.415927 28.8876 0.38779 28.9506C0.359652 29.0135 0.344496 29.0815 0.343227 29.1504C0.341957 29.2194 0.354601 29.2879 0.380403 29.3518C0.406204 29.4158 0.444633 29.4739 0.493394 29.5226C0.542154 29.5714 0.600245 29.6098 0.664193 29.6356C0.728142 29.6614 0.796636 29.6741 0.865582 29.6728C0.934528 29.6715 1.00251 29.6564 1.06547 29.6282C1.12842 29.6001 1.18506 29.5596 1.23199 29.509L15 15.726L28.767 29.51C28.8146 29.5577 28.8711 29.5955 28.9333 29.6214C28.9956 29.6472 29.0623 29.6605 29.1296 29.6605C29.197 29.6606 29.2637 29.6474 29.326 29.6216C29.3882 29.5959 29.4448 29.5581 29.4925 29.5105C29.5402 29.4629 29.578 29.4064 29.6038 29.3442C29.6296 29.282 29.643 29.2153 29.643 29.1479C29.643 29.0805 29.6298 29.0138 29.6041 28.9515C29.5783 28.8893 29.5406 28.8327 29.493 28.785L15.725 15Z" fill="white"/>
</svg>
