<svg width="24" height="24" viewBox="0 0 24 24" fill="none" xmlns="http://www.w3.org/2000/svg">
<path fill-rule="evenodd" clip-rule="evenodd" d="M17.4988 14.3805C17.1994 14.2315 15.7313 13.5135 15.458 13.4136C15.1847 13.3146 14.9858 13.2656 14.7858 13.5635C14.5869 13.8595 14.0151 14.5294 13.8413 14.7274C13.6665 14.9264 13.4926 14.9504 13.1942 14.8024C12.8958 14.6524 11.9332 14.3395 10.7927 13.3276C9.90544 12.5397 9.30557 11.5668 9.13173 11.2688C8.9579 10.9718 9.11264 10.8108 9.26236 10.6629C9.39701 10.5299 9.56079 10.3159 9.71051 10.1429C9.86022 9.96894 9.90946 9.84495 10.0089 9.64598C10.1094 9.448 10.0592 9.27502 9.98382 9.12603C9.90946 8.97705 9.3126 7.51421 9.06341 6.91928C8.82125 6.34034 8.57507 6.41933 8.39219 6.40933C8.21736 6.40133 8.0184 6.39933 7.81945 6.39933C7.6205 6.39933 7.29695 6.47333 7.02364 6.77129C6.74932 7.06826 5.97863 7.78718 5.97863 9.25002C5.97863 10.7119 7.04775 12.1247 7.19747 12.3237C7.34719 12.5217 9.30255 15.5233 12.2979 16.8102C13.0113 17.1161 13.567 17.2991 14.0001 17.4351C14.7155 17.6621 15.3666 17.6301 15.8811 17.5531C16.4538 17.4681 17.6475 16.8342 17.8967 16.1403C18.1449 15.4463 18.1449 14.8514 18.0705 14.7274C17.9962 14.6034 17.7972 14.5294 17.4978 14.3805H17.4988ZM12.0507 21.7826H12.0467C10.2676 21.783 8.52118 21.307 6.99048 20.4048L6.62875 20.1908L2.86874 21.1727L3.87255 17.5251L3.63642 17.1511C2.64179 15.5757 2.11543 13.7523 2.11814 11.8917C2.12015 6.44233 6.57549 2.00882 12.0547 2.00882C14.7074 2.00882 17.2014 3.03871 19.0764 4.9065C20.0012 5.82298 20.7342 6.91284 21.233 8.11304C21.7318 9.31324 21.9864 10.5999 21.9823 11.8987C21.9803 17.3481 17.5249 21.7826 12.0507 21.7826ZM20.5032 3.48766C19.3961 2.3787 18.0788 1.49941 16.6277 0.900742C15.1766 0.302071 13.6206 -0.0040758 12.0497 4.0973e-05C5.46417 4.0973e-05 0.102491 5.33445 0.100481 11.8907C0.0974296 13.9772 0.647475 16.0277 1.69512 17.8351L0 23.9974L6.33434 22.3436C8.0866 23.2936 10.0502 23.7914 12.0457 23.7914H12.0507C18.6363 23.7914 23.9979 18.457 23.9999 11.8997C24.0048 10.3372 23.6983 8.78917 23.0981 7.34526C22.4978 5.90136 21.6159 4.5902 20.5032 3.48766Z" fill="white" fill-opacity="0.75"/>
</svg>
